<svg id="Layer_2" data-name="Layer 2" xmlns="http://www.w3.org/2000/svg" viewBox="0 0 1921 539"><defs><style>.cls-1{fill:#5d5df9;}</style></defs><title>mountains</title><path class="cls-1" d="M1921,1083.5V870.72l-2-2.22-24-9h-19c-4-22-17-23-17-23l-18,6h-17l-33-2-15-23h-12l-5-4-4,4-11-4-9-16-6-1-8-7-11-18-16-18-12-15-10-3-14-6-23-11-10-8-9-1-5-2h-14l-38,24-16,24-11,1c-8-4-20,2-20,2l-27-2-5-4c-5-3-22,4-22,4l-6-2-43-2c-8-6-21-6-21-6l-8-9-11-1c-7,0-11-10-11-10h-12l-3-7h-7l-3-7-17-9-27-18-28-17-7-9-22-27-39-33-7-13-13-14-11-5-8-5-28-1-26-17h-23l-2,9-17,17c-12,10-32,50-32,50l-14,4-20,22-13,2-33,47c-12-1-21,10-21,10-10,2-18,13-18,13l-25,18-11,1c-8-11-32-14-32-14l-7-16-30-6-13-20-17-1-5,7-8,2-13-9-32-19c-3,7-16,7-16,7l-40-22H637l-10-7-27,1-8,8-9-1c-3-13-37-17-37-17H522l-16,12c-7,14-30,19-30,19l-44,33H402l-52,33-58,22-47,25c-16,4-37,31-37,31l-25-19-14,19-18-10-19,10H103l-43-10-23,10H1l-1,3.22V1083.5Z" transform="translate(0 -544.5)"/></svg>