<svg id="Flipbook_Logo" data-name="Flipbook Logo" xmlns="http://www.w3.org/2000/svg" viewBox="0 0 275.43 286.43"><defs><style>.cls-1{fill:#424874;}.cls-2{fill:#6369d1;}.cls-3{fill:#404386;}.cls-4{fill:#2d305f;}.cls-5,.cls-6{fill:none;stroke:#000;stroke-width:5px;}.cls-5{stroke-miterlimit:10;}.cls-6{stroke-linecap:round;stroke-linejoin:round;}</style></defs><title>Flipbook Favicon</title><polygon class="cls-1" points="0 256.03 0 286.44 26.89 286.44 26.89 256.55 0 256.03"/><rect class="cls-2" x="26.89" y="23.47" width="248.02" height="248.02"/><polygon class="cls-3" points="26.89 271.49 0 286.44 0 38.41 26.89 23.47 26.89 271.49"/><polygon class="cls-4" points="274.92 271.49 248.02 286.44 0 286.44 26.89 271.49 274.92 271.49"/><path class="cls-5" d="M41.93,29s0-22.41,22.41-20.92,19.42,40.34-6,38.85" transform="translate(-12.54 -5.53)"/><path class="cls-6" d="M59.28,43.51a6.75,6.75,0,0,0,0,6.76" transform="translate(-12.54 -5.53)"/><path class="cls-5" d="M93.91,29s0-22.41,22.41-20.92,19.42,40.34-6,38.85" transform="translate(-12.54 -5.53)"/><path class="cls-6" d="M111.26,43.51a6.75,6.75,0,0,0,0,6.76" transform="translate(-12.54 -5.53)"/><path class="cls-5" d="M146.17,29s0-22.41,22.41-20.92S188,48.44,162.6,47" transform="translate(-12.54 -5.53)"/><path class="cls-6" d="M163.52,43.51a6.75,6.75,0,0,0,0,6.76" transform="translate(-12.54 -5.53)"/><path class="cls-5" d="M197.39,29s0-22.41,22.41-20.92,19.42,40.34-6,38.85" transform="translate(-12.54 -5.53)"/><path class="cls-6" d="M214.74,43.51a6.75,6.75,0,0,0,0,6.76" transform="translate(-12.54 -5.53)"/><path class="cls-5" d="M248,29S248,6.61,270.37,8.1s19.42,40.34-6,38.85" transform="translate(-12.54 -5.53)"/><path class="cls-6" d="M265.32,43.51a6.73,6.73,0,0,0,0,6.76" transform="translate(-12.54 -5.53)"/></svg>