<svg xmlns="http://www.w3.org/2000/svg" viewBox="0 0 233.04 252.37"><defs><style>.cls-1{fill:#0b9df7;}.cls-2,.cls-3{fill:none;stroke:#000;stroke-miterlimit:10;}.cls-2{stroke-width:0.5px;}.cls-3{stroke-width:3px;fill-rule:evenodd;}</style></defs><title>Flipbook Favicon</title><g id="Flipbook"><rect class="cls-1" x="0.54" y="19.87" width="232" height="232"/><path d="M266,47V278H35V47H266m1-1H34V279H267V46Z" transform="translate(-33.96 -26.63)"/><line class="cls-2" x1="1.04" y1="248.37" x2="232.04" y2="248.37"/><line class="cls-2" x1="1.04" y1="250.37" x2="232.04" y2="250.37"/><line class="cls-2" x1="1.04" y1="246.37" x2="232.04" y2="246.37"/><line class="cls-2" x1="1.04" y1="244.37" x2="232.04" y2="244.37"/><line class="cls-2" x1="1.04" y1="242.37" x2="232.04" y2="242.37"/><line class="cls-2" x1="1.04" y1="240.37" x2="232.04" y2="240.37"/><circle cx="19.67" cy="30.02" r="4.5"/><circle cx="49.82" cy="30.02" r="4.5"/><circle cx="82.54" cy="29.87" r="4.5"/><circle cx="116.54" cy="30.02" r="4.5"/><circle cx="148.67" cy="30.02" r="4.5"/><circle cx="178.82" cy="30.02" r="4.5"/><circle cx="211.54" cy="29.87" r="4.5"/><path class="cls-3" d="M53,57c.26,1.25-8.42-32.75,1.5-28.5,7,3,4,18,4,18" transform="translate(-33.96 -26.63)"/><path class="cls-3" d="M83,57c.26,1.25-8.42-32.75,1.5-28.5,7,3,4,18,4,18" transform="translate(-33.96 -26.63)"/><path class="cls-3" d="M115,57c.26,1.25-8.42-32.75,1.5-28.5,7,3,4,18,4,18" transform="translate(-33.96 -26.63)"/><path class="cls-3" d="M149,57c.26,1.25-8.42-32.75,1.5-28.5,7,3,4,18,4,18" transform="translate(-33.96 -26.63)"/><path class="cls-3" d="M181,57c.26,1.25-8.42-32.75,1.5-28.5,7,3,4,18,4,18" transform="translate(-33.96 -26.63)"/><path class="cls-3" d="M211,57c.26,1.25-8.42-32.75,1.5-28.5,7,3,4,18,4,18" transform="translate(-33.96 -26.63)"/><path class="cls-3" d="M244,57c.26,1.25-8.42-32.75,1.5-28.5,7,3,4,18,4,18" transform="translate(-33.96 -26.63)"/></g><g id="Flip"><path class="cls-2" d="M34.73,209.7S86,267,108,267a67.53,67.53,0,0,1-19.17-56.17,104.24,104.24,0,0,1-54.12-1.13Z" transform="translate(-33.96 -26.63)"/></g></svg>