<svg id="GameSpeak" xmlns="http://www.w3.org/2000/svg" viewBox="0 0 169.61 138.51"><defs><style>.cls-1{fill:#f3d3bd;}.cls-2{fill:#7d80da;}.cls-3{fill:#383838;}.cls-4,.cls-5{fill:none;stroke:#7d80da;stroke-miterlimit:10;}.cls-4{stroke-width:21px;}.cls-5{stroke-width:6px;}</style></defs><title>Game Speak Logo</title><circle class="cls-1" cx="84.18" cy="80.35" r="58.16"/><path class="cls-2" d="M237.84,88.69s-13.6,29.38,9.42,57.56c0,0,13.9,2.88,31.2-3.94-3.74-4.51-11.8-14-15-26.31a65.8,65.8,0,0,1,0-33S249.22,81.24,237.84,88.69Z" transform="translate(-233.85 -19.81)"/><path class="cls-2" d="M399.47,88.69s13.6,29.38-9.42,57.56a63.36,63.36,0,0,1-32.2-3.94c3.74-4.51,12.8-14,16-26.31a66,66,0,0,0,0-33S388.09,81.24,399.47,88.69Z" transform="translate(-233.85 -19.81)"/><path class="cls-3" d="M285.78,118h64S317.09,177.78,285.78,118Z" transform="translate(-233.85 -19.81)"/><path class="cls-4" d="M251.38,110.89c-4.08-42.63,31.7-77.8,69.38-76.51,36.13,1.25,68.68,35.74,64.64,76.51" transform="translate(-233.85 -19.81)"/><path class="cls-5" d="M380.53,114.3S357.86,133,325.05,127.64" transform="translate(-233.85 -19.81)"/><ellipse class="cls-2" cx="90.81" cy="106.84" rx="15.79" ry="11.17"/><path class="cls-2" d="M274.46,38.06A9,9,0,0,1,279,30.22,79.69,79.69,0,0,1,323.46,20a78.62,78.62,0,0,1,33.47,10.21A9,9,0,0,1,361.46,38V53a9,9,0,0,1-6.91,8.76A160.84,160.84,0,0,1,317.46,66a160.27,160.27,0,0,1-36-4.2,9,9,0,0,1-7-8.78Z" transform="translate(-233.85 -19.81)"/></svg>