<svg xmlns="http://www.w3.org/2000/svg" viewBox="0 0 139.05 152.96"><defs><style>.cls-1{fill:#e4572e;}.cls-2,.cls-3{fill:none;stroke:#e4572e;stroke-miterlimit:10;}.cls-2{stroke-width:6px;}.cls-3{stroke-width:3px;}</style></defs><title>Mic</title><g id="Headphones"><rect class="cls-1" y="62.07" width="20.35" height="52.23" rx="9.51" ry="9.51"/><rect class="cls-1" x="118.7" y="62.07" width="20.35" height="52.23" rx="9.51" ry="9.51"/><path class="cls-2" d="M28.09,75.82a59.74,59.74,0,0,1,59-57c31.68-.18,58.31,25.15,59.69,57" transform="translate(-17.91 -11.04)"/><path class="cls-1" d="M92.52,47.34" transform="translate(-17.91 -11.04)"/><path class="cls-1" d="M118.8,40a66.36,66.36,0,0,0-30.41-8.28A66.41,66.41,0,0,0,57.08,39.1a6.51,6.51,0,0,1-5.22-3.24,13.54,13.54,0,0,1-2.09-7.66h0c.08-5.95,3.51-10.76,7.61-10.7a72.65,72.65,0,0,1,61.72.85,6.5,6.5,0,0,1,5.22,3.25,13.54,13.54,0,0,1,2.09,7.66h0C126.33,35.2,122.9,40,118.8,40Z" transform="translate(-17.91 -11.04)"/><rect class="cls-1" x="23.74" y="64.78" width="6.78" height="48.16"/><rect class="cls-1" x="109.2" y="64.78" width="6.78" height="48.16"/></g><g id="Mic"><path class="cls-3" d="M146.11,114.49a39.92,39.92,0,0,1-8.48,23.92C123.8,155.94,100.92,154.58,100,154.5" transform="translate(-17.91 -11.04)"/><ellipse class="cls-1" cx="71.22" cy="142.45" rx="16.96" ry="10.51"/></g></svg>